<svg width="57" height="57" viewBox="0 0 57 57" fill="none" xmlns="http://www.w3.org/2000/svg">
<path d="M28.18 45.5999C29.16 45.5999 29.9888 45.2611 30.6664 44.5835C31.344 43.9059 31.6819 43.0781 31.68 42.1C31.6782 41.1218 31.3403 40.293 30.6664 39.6136C29.9926 38.9341 29.1638 38.5962 28.18 38.6C27.1963 38.6037 26.3684 38.9425 25.6964 39.6163C25.0244 40.2902 24.6856 41.1181 24.68 42.1C24.6744 43.0818 25.0132 43.9106 25.6964 44.5863C26.3796 45.2621 27.2075 45.5999 28.18 45.5999ZM25.66 34.82H30.84C30.84 33.28 31.0155 32.0666 31.3664 31.18C31.7174 30.2933 32.7086 29.08 34.34 27.54C35.5534 26.3266 36.51 25.1712 37.21 24.0736C37.91 22.976 38.26 21.6581 38.26 20.12C38.26 17.5066 37.3034 15.5 35.39 14.1C33.4767 12.7 31.2134 12 28.6 12C25.94 12 23.7822 12.7 22.1264 14.1C20.4707 15.5 19.3153 17.18 18.6601 19.14L23.28 20.96C23.5134 20.12 24.0388 19.21 24.8564 18.23C25.674 17.25 26.9219 16.76 28.6 16.76C30.0934 16.76 31.2134 17.1688 31.96 17.9864C32.7067 18.804 33.08 19.7018 33.08 20.68C33.08 21.6133 32.8 22.4888 32.24 23.3064C31.68 24.124 30.98 24.8818 30.14 25.58C28.0867 27.4 26.8267 28.7766 26.36 29.71C25.8934 30.6433 25.66 32.3466 25.66 34.82ZM28.32 56.7999C24.4467 56.7999 20.8067 56.0654 17.4001 54.5963C13.9934 53.1273 11.0301 51.1318 8.51006 48.6099C5.99007 46.0881 3.99554 43.1247 2.52647 39.7199C1.0574 36.3152 0.321939 32.6752 0.320072 28.8C0.318205 24.9248 1.05367 21.2848 2.52647 17.88C3.99927 14.4752 5.9938 11.5119 8.51006 8.98999C11.0263 6.46813 13.9897 4.4736 17.4001 3.0064C20.8105 1.5392 24.4504 0.803735 28.32 0.800002C32.1896 0.796269 35.8296 1.53173 39.24 3.0064C42.6504 4.48106 45.6138 6.47559 48.13 8.98999C50.6463 11.5044 52.6418 14.4677 54.1164 17.88C55.5911 21.2922 56.3256 24.9322 56.32 28.8C56.3144 32.6677 55.5789 36.3077 54.1136 39.7199C52.6483 43.1322 50.6538 46.0955 48.13 48.6099C45.6063 51.1243 42.643 53.1198 39.24 54.5963C35.8371 56.0729 32.1971 56.8074 28.32 56.7999Z" fill="#8F469A"/>
</svg>
